# xmcd
#
# Track frame offsets:
#	150
#	14138
#	26849
#	44174
#	59271
#	72364
#	85741
#	98828
#	115961
#	130159
#	146296
#	163769
#	178306
#	195636
#	208462
#	222756
#	234550
#	244923
#	260890
#	279868
#	294230
#	311937
#
# Disc length: 4347 seconds
#
# Revision: 0
# Processed by: cddbd v1.5.1PL2 Copyright (c) Steve Scherf et al.
# Submitted via: audiograbber 1.83.01
#
DISCID=6010f916
DTITLE=Various Artist - Sertanejo Raizes By Miro 5
DYEAR=2006
DGENRE=Country
TTITLE0=Joao Mineiro and Marciano - Ainda Ontem, Chorei De Saudade
TTITLE1=Sergio Reis - João de Barro
TTITLE2=Chrystian and Ralf - Caminheiro
TTITLE3=Mari Trini con Los Panchos - La Paloma
TTITLE4=Chrystian and Ralf - Quebradas Da Noite
TTITLE5=Trio Los Panchos - La Cucaracha y Adelita
TTITLE6=Trio Los Panchos - el rancho grande y cielito lindo
TTITLE7=Milionario and Jose Rico - Tribunal Do Amor
TTITLE8=Daniel (part_ esp_ Pena Branca) - Cuitelinho 
TTITLE9=Milionario and Jose Rico - Sonho de um Caminhoneiro
TTITLE10=Daniel  (part_ esp_ Pedro Bento e Zeh da Estrada) - Magoa De Boiadeiro
TTITLE11=Trio Los Panchos - La Malageña
TTITLE12=Daniel (part_ esp_ Almir Sater) - Tocando Em Frente (part_ esp_ Almir 
TTITLE12=Sater)
TTITLE13=Joao Mineiro and Marciano - Amor e Amizade
TTITLE14=Joao Paulo e Daniel - Poeira Da Estrada
TTITLE15=Trio Los Panchos - Solamente Una Vez
TTITLE16=Chrystian and Ralf - Ladrao de Mulher
TTITLE17=Milionario and Jose Rico - Viva A Vida
TTITLE18=Sergio Reis - Menino da Gaita
TTITLE19=Tonico and Tinoco - Chico Mineiro
TTITLE20=Trio Parada Dura - Último Adeus
TTITLE21=Valdery and Mizael - O Carro e a Faculdade
EXTD=
EXTT0=
EXTT1=
EXTT2=
EXTT3=
EXTT4=
EXTT5=
EXTT6=
EXTT7=
EXTT8=
EXTT9=
EXTT10=
EXTT11=
EXTT12=
EXTT13=
EXTT14=
EXTT15=
EXTT16=
EXTT17=
EXTT18=
EXTT19=
EXTT20=
EXTT21=
PLAYORDER=
